#!OML:ASF I:\salsa\salsa 7_09\Patient 1\Session 1\dancerfemale.ASF
:FULLY-SPECIFIED
:DEGREES
1773
root -3.26767 16.0817 -3.41882 13.8838 73.1914 368.676
lowerback 0.708093 0.133443 -3.21282
upperback -7.18901 -0.0261019 -3.6123
thorax -7.93055 0.140561 -2.01233
lowerneck 7.22526 -11.9429 -11.9548
upperneck 6.12643 -17.2665 13.1593
head 2.84185 -8.75928 5.51419
rclavicle -9.14409e-015 -4.6118e-014
rhumerus -54.1933 -37.1479 -63.2563
rradius 34.5216
rwrist -1.68645
rhand 1.64466 402.421
rfingers 7.12502
rthumb 27.1647 14.3565
lclavicle -9.14409e-015 -4.6118e-014
lhumerus -54.7139 22.8699 66.2592
lradius 56.4182
lwrist -32.9502
lhand -17.4019 40.1558
lfingers 7.12502
lthumb 8.84753 69.9504
rfemur -10.1756 -2.76563 22.4371
rtibia 25.4712
rfoot -26.2581 -8.97853
rtoes -5.54582
lfemur -23.4765 -0.597662 -23.5318
ltibia 37.0239
lfoot -21.416 6.02312
ltoes -16.0907
1774
root -3.30522 16.0763 -3.39451 13.5442 73.5028 368.361
lowerback 0.704988 0.109324 -3.06326
upperback -7.15094 -0.0494518 -3.58596
thorax -7.88657 0.119138 -2.06506
lowerneck 7.15787 -11.9627 -11.9193
upperneck 6.32743 -17.292 13.0269
head 2.90144 -8.7668 5.45777
rclavicle 2.18663e-014 2.3059e-014
rhumerus -53.7475 -36.9046 -63.7625
rradius 34.678
rwrist -2.03132
rhand 1.56519 402.473
rfingers 7.12502
rthumb 27.0887 14.3966
lclavicle 2.18663e-014 2.3059e-014
lhumerus -54.8902 23.7117 65.0196
lradius 54.5381
lwrist -33.3348
lhand -18.0953 39.6397
lfingers 7.12502
lthumb 8.17834 69.4614
rfemur -10.2057 -3.09425 22.7116
rtibia 25.4214
rfoot -26.219 -8.81015
rtoes -5.18843
lfemur -23.7867 -1.0061 -23.2183
ltibia 37.4101
lfoot -21.306 6.21116
ltoes -16.3286
1775
root -3.34665 16.0695 -3.37287 13.4144 73.8581 368.217
lowerback 0.769429 0.0887033 -2.95006
upperback -7.1583 -0.0738205 -3.55081
thorax -7.93193 0.10097 -2.09032
lowerneck 7.16449 -12.0071 -11.9342
upperneck 6.44312 -17.3521 12.8732
head 2.93093 -8.79716 5.4071
rclavicle 5.92378e-014 -3.57812e-014
rhumerus -53.4032 -36.8063 -63.9704
rradius 34.6884
rwrist -2.16629
rhand 1.52762 402.545
rfingers 7.12502
rthumb 27.0527 14.4629
lclavicle 5.92378e-014 -3.57812e-014
lhumerus -55.0775 24.5905 63.8736
lradius 52.789
lwrist -33.5926
lhand -19.0771 39.9272
lfingers 7.12502
lthumb 7.23075 69.7837
rfemur -10.3079 -3.55813 22.9339
rtibia 25.3763
rfoot -26.1241 -8.54048
rtoes -4.76351
lfemur -24.2562 -1.2866 -22.9736
ltibia 37.9679
lfoot -21.2525 6.23781
ltoes -17.7341
1776
root -3.39317 16.059 -3.34906 12.4567 74.2372 367.19
lowerback 0.86934 0.106285 -2.64809
upperback -7.16974 -0.0373828 -3.45404
thorax -8.00047 0.101726 -2.16106
lowerneck 7.25014 -12.0374 -12.0068
upperneck 6.43347 -17.405 12.9036
head 2.93021 -8.82758 5.42881
rclavicle 1.88845e-014 -1.35174e-014
rhumerus -53.1283 -36.7636 -64.1504
rradius 34.7148
rwrist -2.32696
rhand 1.42907 402.592
rfingers 7.12502
rthumb 26.9585 14.4955
lclavicle 1.88845e-014 -1.35174e-014
lhumerus -55.1925 25.4011 62.8099
lradius 51.2233
lwrist -33.7604
lhand -19.9208 40.765
lfingers 7.12502
lthumb 6.41627 70.6479
rfemur -10.525 -3.95191 23.4588
rtibia 25.4613
rfoot -26.0596 -8.32039
rtoes -4.30217
lfemur -24.8605 -1.39533 -22.46
ltibia 38.6546
lfoot -21.3133 6.12386
ltoes -19.5769
1777
root -3.43933 16.044 -3.32164 10.2243 74.5894 364.916
lowerback 1.0102 0.156558 -2.09062
upperback -7.14839 0.057927 -3.27181
thorax -8.05444 0.115726 -2.28872
lowerneck 7.21385 -12.0882 -11.9503
upperneck 6.5012 -17.4671 12.8438
head 2.95421 -8.85493 5.3943
rclavicle -3.49861e-014 -3.73715e-014
rhumerus -52.9091 -36.7344 -64.3531
rradius 34.7834
rwrist -2.51267
rhand 1.28906 402.726
rfingers 7.12502
rthumb 26.8245 14.6081
lclavicle -3.49861e-014 -3.73715e-014
lhumerus -55.2625 26.2132 61.7547
lradius 49.7292
lwrist -34.1246
lhand -21.0966 40.6326
lfingers 7.12502
lthumb 5.28106 70.5468
rfemur -10.7214 -4.13539 24.3502
rtibia 25.6282
rfoot -26.1079 -8.25943
rtoes -3.87213
lfemur -25.5021 -1.534 -21.5759
ltibia 39.5131
lfoot -21.4924 6.11164
ltoes -20.2494
1778
root -3.48736 16.0269 -3.31131 9.85881 74.9206 364.492
lowerback 1.15186 0.161095 -1.8647
upperback -7.17189 0.0701848 -3.24775
thorax -8.16209 0.10718 -2.39342
lowerneck 7.26798 -12.098 -11.8339
upperneck 6.41723 -17.4641 12.774
head 2.90408 -8.85425 5.36413
rclavicle -1.55052e-014 -3.18055e-015
rhumerus -52.718 -36.6677 -64.5579
rradius 34.9065
rwrist -2.58397
rhand 1.27055 402.777
rfingers 7.12502
rthumb 26.8068 14.6565
lclavicle -1.55052e-014 -3.18055e-015
lhumerus -55.408 27.0136 60.7382
lradius 48.3879
lwrist -34.5589
lhand -22.608 39.8014
lfingers 7.12502
lthumb 3.82165 69.7469
rfemur -11.0898 -4.82896 24.5927
rtibia 25.9015
rfoot -26.1271 -7.75596
rtoes -3.5256
lfemur -26.2965 -1.7984 -21.3356
ltibia 40.4623
lfoot -21.5563 6.243
ltoes -20.2349
1779
root -3.53822 16.0035 -3.30523 8.61529 75.3077 363.303
lowerback 1.38497 0.166616 -1.42463
upperback -7.08101 0.0950157 -3.14806
thorax -8.19737 0.0903933 -2.53722
lowerneck 7.32157 -12.0869 -11.8526
upperneck 6.17023 -17.4409 12.8772
head 2.82955 -8.84757 5.40963
rclavicle -6.55989e-015 2.06736e-014
rhumerus -52.3412 -36.7465 -64.7542
rradius 35.0091
rwrist -2.48187
rhand 1.32149 402.573
rfingers 7.12502
rthumb 26.8555 14.4599
lclavicle -6.55989e-015 2.06736e-014
lhumerus -55.4777 27.8522 59.9079
lradius 47.2749
lwrist -34.9247
lhand -23.2453 39.6237
lfingers 7.12502
lthumb 3.20626 69.5793
rfemur -11.3245 -5.65568 25.0303
rtibia 26.1896
rfoot -26.1191 -7.19198
rtoes -3.19389
lfemur -27.066 -1.70607 -20.9447
ltibia 41.5282
lfoot -21.4616 6.06758
ltoes -20.7903
1780
root -3.58676 15.978 -3.30692 7.32585 75.7367 362.087
lowerback 1.57817 0.158736 -0.867687
upperback -6.93921 0.110937 -3.06316
thorax -8.15431 0.0609935 -2.76005
lowerneck 7.34222 -12.0997 -12.0223
upperneck 5.9746 -17.4666 13.0424
head 2.80043 -8.86627 5.48682
rclavicle -4.92986e-014 -3.97569e-015
rhumerus -51.8748 -36.9392 -64.8849
rradius 34.9508
rwrist -2.32708
rhand 1.34161 402.466
rfingers 7.12502
rthumb 26.8748 14.3565
lclavicle -4.92986e-014 -3.97569e-015
lhumerus -55.515 28.8133 59.1137
lradius 46.3
lwrist -35.3828
lhand -23.3706 39.5469
lfingers 7.12502
lthumb 3.08518 69.5043
rfemur -11.5099 -6.70666 25.4176
rtibia 26.4365
rfoot -26.1058 -6.49799
rtoes -3.01326
lfemur -27.8128 -1.58584 -20.602
ltibia 42.6561
lfoot -21.512 5.72641
ltoes -21.9148
1781
root -3.63022 15.9498 -3.29318 4.68633 76.0213 359.596
lowerback 1.83641 0.175239 -0.241824
upperback -6.8207 0.170324 -2.85029
thorax -8.17267 0.052582 -2.89183
lowerneck 7.42146 -12.0991 -12.1648
upperneck 5.87217 -17.4786 13.1273
head 2.77874 -8.87886 5.5393
rclavicle 4.08502e-014 4.77083e-015
rhumerus -51.5354 -37.0778 -64.9357
rradius 34.7953
rwrist -2.15332
rhand 1.41347 402.661
rfingers 7.12502
rthumb 26.9435 14.5614
lclavicle 4.08502e-014 4.77083e-015
lhumerus -55.6817 29.6507 58.3639
lradius 45.5087
lwrist -35.7623
lhand -23.8708 39.4032
lfingers 7.12502
lthumb 2.60218 69.3671
rfemur -11.4708 -6.91953 26.2044
rtibia 26.537
rfoot -26.1409 -6.49432
rtoes -2.85331
lfemur -28.4235 -1.39104 -19.8577
ltibia 43.8044
lfoot -21.7359 5.35287
ltoes -22.435
1782
root -3.67147 15.92 -3.26421 -0.0741126 76.0736 355.051
lowerback 2.19341 0.25059 0.621028
upperback -6.67664 0.335594 -2.44589
thorax -8.21488 0.0864171 -2.96512
lowerneck 7.41798 -12.0925 -12.1664
upperneck 5.84112 -17.4621 13.0678
head 2.76298 -8.8714 5.5236
rclavicle 3.06128e-014 -1.74931e-014
rhumerus -51.206 -37.2151 -64.9717
rradius 34.6315
rwrist -1.91912
rhand 1.53387 402.745
rfingers 7.12502
rthumb 27.0587 14.6642
lclavicle 3.06128e-014 -1.74931e-014
lhumerus -55.8787 30.2407 57.8715
lradius 44.9554
lwrist -35.8533
lhand -24.3214 39.5984
lfingers 7.12502
lthumb 2.16697 69.5672
rfemur -11.1927 -6.33332 27.6071
rtibia 26.4725
rfoot -26.1432 -7.12108
rtoes -2.63494
lfemur -28.9105 -0.899203 -18.5173
ltibia 44.926
lfoot -21.8937 4.89359
ltoes -22.2544
1783
root -3.70644 15.8947 -3.24129 -3.18204 76.1028 352.358
lowerback 2.63549 0.334219 1.11161
upperback -6.46153 0.48638 -2.16898
thorax -8.23082 0.134261 -2.96402
lowerneck 7.48411 -12.0837 -12.1808
upperneck 5.73757 -17.4432 13.0054
head 2.71518 -8.86654 5.5161
rclavicle 9.74045e-015 5.56597e-015
rhumerus -50.8709 -37.4465 -64.9324
rradius 34.4008
rwrist -1.68073
rhand 1.52776 402.715
rfingers 7.12502
rthumb 27.0529 14.6324
lclavicle 9.74045e-015 5.56597e-015
lhumerus -56.0161 30.6875 57.5807
lradius 44.4999
lwrist -35.7531
lhand -24.5164 39.3519
lfingers 7.12502
lthumb 1.97863 69.3224
rfemur -10.6642 -6.24561 28.4197
rtibia 26.2644
rfoot -26.1053 -7.31917
rtoes -2.19074
lfemur -29.0757 -0.478681 -17.7273
ltibia 45.9055
lfoot -22.0624 4.47804
ltoes -21.9004
1784
root -3.74166 15.8717 -3.2241 -6.66923 76.0337 349.165
lowerback 2.96144 0.432192 1.76066
upperback -6.28964 0.677052 -1.84514
thorax -8.22221 0.194875 -3.00676
lowerneck 7.63324 -12.0931 -12.2268
upperneck 5.61386 -17.4557 12.9249
head 2.65356 -8.8811 5.51209
rclavicle -1.40143e-014 -1.74931e-014
rhumerus -50.6297 -37.7122 -64.7954
rradius 34.1576
rwrist -1.44883
rhand 1.38022 402.829
rfingers 7.12502
rthumb 26.9117 14.7252
lclavicle -1.40143e-014 -1.74931e-014
lhumerus -56.0949 31.0616 57.4391
lradius 44.039
lwrist -35.6332
lhand -24.6942 38.907
lfingers 7.12502
lthumb 1.80691 68.8791
rfemur -10.2387 -6.35589 29.3474
rtibia 25.9816
rfoot -25.9402 -7.28619
rtoes -1.77757
lfemur -29.2942 -0.0497436 -16.8018
ltibia 46.7761
lfoot -22.1584 4.08478
ltoes -21.9085
1785
root -3.77437 15.8506 -3.20728 -10.1309 75.8548 345.916
lowerback 3.13234 0.500487 2.41679
upperback -6.13393 0.833895 -1.49457
thorax -8.14176 0.242357 -3.02038
lowerneck 7.73001 -12.0794 -12.1939
upperneck 5.57297 -17.4283 12.7595
head 2.60552 -8.87162 5.46883
rclavicle 1.2921e-014 4.77083e-015
rhumerus -50.3911 -37.991 -64.6838
rradius 33.9026
rwrist -1.05308
rhand 1.21459 402.859
rfingers 7.12502
rthumb 26.7532 14.7304
lclavicle 1.2921e-014 4.77083e-015
lhumerus -56.2421 31.3966 57.3771
lradius 43.7317
lwrist -35.4494
lhand -24.8341 38.8215
lfingers 7.12502
lthumb 1.67175 68.7947
rfemur -9.92771 -6.43951 30.3219
rtibia 25.7771
rfoot -25.7111 -7.23834
rtoes -1.71771
lfemur -29.5264 0.4464 -15.8375
ltibia 47.5071
lfoot -22.1391 3.73575
ltoes -22.4262
1786
root -3.80371 15.8337 -3.19506 -12.3405 75.6933 343.858
lowerback 3.20302 0.534046 2.86573
upperback -5.99861 0.923979 -1.23924
thorax -8.02955 0.269076 -3.01055
lowerneck 7.7421 -12.0182 -12.1527
upperneck 5.58483 -17.3343 12.6204
head 2.57961 -8.82509 5.42905
rclavicle -6.36111e-015 3.97569e-015
rhumerus -50.0871 -38.3105 -64.6201
rradius 33.5683
rwrist -0.588884
rhand 1.18022 402.833
rfingers 7.12502
rthumb 26.7203 14.6996
lclavicle -6.36111e-015 3.97569e-015
lhumerus -56.471 31.7854 57.2386
lradius 43.5363
lwrist -35.3472
lhand -24.9091 38.5874
lfingers 7.12502
lthumb 1.59933 68.5611
rfemur -9.72991 -6.61968 30.9621
rtibia 25.6249
rfoot -25.6029 -7.06544
rtoes -1.32116
lfemur -29.7812 0.841268 -15.2096
ltibia 48.1497
lfoot -22.1347 3.50974
ltoes -22.8996
